<?xml version="1.0" encoding="utf-8"?>
<!-- Generator: Adobe Illustrator 16.0.0, SVG Export Plug-In . SVG Version: 6.00 Build 0)  -->
<!DOCTYPE svg PUBLIC "-//W3C//DTD SVG 1.1//EN" "http://www.w3.org/Graphics/SVG/1.1/DTD/svg11.dtd">
<svg version="1.1" id="Layer_1" xmlns="http://www.w3.org/2000/svg" xmlns:xlink="http://www.w3.org/1999/xlink" x="0px" y="0px"
	 width="50px" height="50px" viewBox="0 0 100 100" enable-background="new 0 0 100 100" xml:space="preserve">
<g>
	<ellipse fill="#FFFFFF" cx="51.238" cy="37.895" rx="30.389" ry="29.454"/>
	<g>
		<g>
			<path d="M48.109,60.956v-5.37c-3.955-0.17-7.793-1.188-10.036-2.431l1.771-6.613c2.479,1.3,5.962,2.487,9.8,2.487
				c3.365,0,5.667-1.244,5.667-3.505c0-2.147-1.889-3.504-6.258-4.917c-6.316-2.035-10.626-4.861-10.626-10.344
				c0-4.974,3.66-8.875,9.977-10.062v-5.369h5.786v4.974c3.955,0.169,6.611,0.961,8.56,1.866l-1.712,6.387
				c-1.535-0.622-4.25-1.921-8.501-1.921c-3.838,0-5.077,1.583-5.077,3.165c0,1.866,2.066,3.053,7.084,4.861
				c7.025,2.374,9.859,5.483,9.859,10.57c0,5.03-3.72,9.327-10.509,10.457v5.766H48.109z"/>
		</g>
		<path fill="none" stroke="#000000" stroke-width="6" stroke-linecap="round" stroke-linejoin="round" stroke-miterlimit="10" d="
			M73.082,58.4c-5.475,6.334-13.458,10.326-22.349,10.326c-5.256,0-10.194-1.395-14.484-3.844"/>
		<path fill="none" stroke="#000000" stroke-width="6" stroke-linecap="round" stroke-linejoin="round" stroke-miterlimit="10" d="
			M22.015,46.529c-0.759-2.707-1.165-5.567-1.165-8.525c0-16.967,13.379-30.721,29.884-30.721c5.871,0,11.347,1.74,15.966,4.747"/>
		<g>
			
				<polyline fill="#FFFFFF" stroke="#000000" stroke-width="6" stroke-linecap="round" stroke-linejoin="round" stroke-miterlimit="10" points="
				25.408,48.507 16.667,48.507 16.667,68.582 8.76,68.582 25.408,89.705 			"/>
			
				<polyline fill="#FFFFFF" stroke="#000000" stroke-width="6" stroke-linecap="round" stroke-linejoin="round" stroke-miterlimit="10" points="
				23.186,48.507 34.149,48.507 34.149,68.582 42.056,68.582 25.408,89.705 			"/>
		</g>
		
			<ellipse fill="#FFFFFF" stroke="#000000" stroke-width="6" stroke-linecap="round" stroke-linejoin="round" stroke-miterlimit="10" cx="73.229" cy="83.599" rx="8.815" ry="8.724"/>
		
			<polygon fill="#FFFFFF" stroke="#000000" stroke-width="6" stroke-linecap="round" stroke-linejoin="round" stroke-miterlimit="10" points="
			93.8,10.261 68.659,7.282 68.659,56.038 83.678,58.398 		"/>
	</g>
</g>
</svg>
