<?xml version="1.0" encoding="utf-8"?>
<!-- Generator: Adobe Illustrator 16.0.0, SVG Export Plug-In . SVG Version: 6.00 Build 0)  -->
<!DOCTYPE svg PUBLIC "-//W3C//DTD SVG 1.1//EN" "http://www.w3.org/Graphics/SVG/1.1/DTD/svg11.dtd">
<svg version="1.1" id="Layer_1" xmlns="http://www.w3.org/2000/svg" xmlns:xlink="http://www.w3.org/1999/xlink" x="0px" y="0px"
	 width="100px" height="100px" viewBox="0 0 100 100" enable-background="new 0 0 100 100" xml:space="preserve">
<g>
	
		<path fill="#446984" stroke="#000000" stroke-width="6" stroke-linecap="round" stroke-linejoin="round" stroke-miterlimit="10" d="
		M93.619,83.614c0,4.954-3.439,8.97-7.682,8.97H16.262c-4.243,0-7.682-4.016-7.682-8.97V16.514c0-4.954,3.439-8.969,7.682-8.969
		h69.675c4.242,0,7.682,4.015,7.682,8.969V83.614z"/>
	
		<path fill="#FFFFFF" stroke="#000000" stroke-width="6" stroke-linecap="round" stroke-linejoin="round" stroke-miterlimit="10" d="
		M83.236,77.988c0,3.208-2.6,5.808-5.807,5.808H24.771c-3.207,0-5.807-2.6-5.807-5.808V34.549c0-3.207,2.6-5.807,5.807-5.807H77.43
		c3.207,0,5.807,2.6,5.807,5.807V77.988z"/>
	<g>
		<path d="M36.342,52.689c-0.702,0.312-2.028,0.571-3.536,0.571c-4.108,0-6.734-2.496-6.734-6.5c0-3.718,2.548-6.761,7.28-6.761
			c1.04,0,2.184,0.183,3.016,0.494l-0.624,2.938c-0.468-0.208-1.17-0.39-2.21-0.39c-2.08,0-3.432,1.481-3.406,3.562
			c0,2.341,1.56,3.563,3.484,3.563c0.936,0,1.664-0.156,2.262-0.39L36.342,52.689z"/>
		<path d="M45.857,53.001l-0.233-1.274h-0.078c-0.832,1.015-2.132,1.561-3.64,1.561c-2.574,0-4.108-1.872-4.108-3.9
			c0-3.302,2.964-4.889,7.462-4.862v-0.182c0-0.677-0.364-1.638-2.314-1.638c-1.3,0-2.678,0.441-3.51,0.961l-0.728-2.547
			C39.592,40.625,41.333,40,43.647,40c4.238,0,5.59,2.496,5.59,5.486v4.42c0,1.223,0.052,2.393,0.182,3.095H45.857z M45.39,46.994
			c-2.08-0.025-3.692,0.469-3.692,2.003c0,1.014,0.676,1.508,1.56,1.508c0.988,0,1.794-0.649,2.054-1.456
			c0.052-0.208,0.078-0.441,0.078-0.676V46.994z"/>
		<path d="M52.332,49.543c0.728,0.441,2.235,0.962,3.406,0.962c1.195,0,1.689-0.416,1.689-1.065c0-0.65-0.391-0.963-1.872-1.457
			c-2.626-0.884-3.64-2.313-3.614-3.822c0-2.365,2.027-4.16,5.174-4.16c1.482,0,2.809,0.338,3.589,0.729l-0.702,2.73
			c-0.572-0.313-1.664-0.729-2.756-0.729c-0.963,0-1.508,0.391-1.508,1.04c0,0.599,0.493,0.91,2.054,1.456
			c2.418,0.832,3.432,2.055,3.458,3.926c0,2.367-1.872,4.108-5.512,4.108c-1.664,0-3.146-0.364-4.109-0.884L52.332,49.543z"/>
		<path d="M63.641,34.54h3.953v7.255h0.052c0.416-0.547,0.937-0.963,1.56-1.301C69.777,40.183,70.531,40,71.26,40
			c2.521,0,4.445,1.742,4.445,5.564v7.437h-3.951v-6.994c0-1.664-0.572-2.808-2.055-2.808c-1.04,0-1.689,0.676-1.976,1.377
			c-0.104,0.261-0.13,0.599-0.13,0.885v7.54h-3.953V34.54z"/>
	</g>
	<g>
		<path d="M25.929,56.701c1.04-0.208,3.146-0.364,5.123-0.364c2.417,0,3.9,0.233,5.174,0.988c1.222,0.649,2.106,1.847,2.106,3.433
			c0,1.56-0.91,3.016-2.886,3.744v0.051c2.002,0.547,3.484,2.055,3.484,4.316c0,1.586-0.729,2.834-1.821,3.719
			c-1.273,1.014-3.406,1.586-6.89,1.586c-1.95,0-3.406-0.131-4.29-0.26V56.701z M29.855,63.409h1.3c2.08,0,3.198-0.858,3.198-2.157
			c0-1.326-1.014-2.029-2.809-2.029c-0.858,0-1.352,0.053-1.69,0.104V63.409z M29.855,71.184c0.39,0.053,0.858,0.053,1.534,0.053
			c1.794,0,3.38-0.677,3.38-2.523c0-1.768-1.586-2.469-3.563-2.469h-1.352V71.184z"/>
		<path d="M47.77,73.992l-0.234-1.274h-0.078c-0.832,1.015-2.132,1.56-3.64,1.56c-2.574,0-4.108-1.871-4.108-3.9
			c0-3.301,2.964-4.888,7.462-4.861v-0.182c0-0.677-0.364-1.639-2.314-1.639c-1.3,0-2.678,0.441-3.51,0.962l-0.728-2.548
			c0.884-0.494,2.626-1.118,4.94-1.118c4.238,0,5.59,2.496,5.59,5.486v4.42c0,1.222,0.052,2.392,0.183,3.095H47.77z M47.301,67.985
			c-2.08-0.026-3.692,0.468-3.692,2.003c0,1.014,0.676,1.508,1.56,1.508c0.988,0,1.794-0.65,2.054-1.457
			c0.052-0.207,0.078-0.441,0.078-0.676V67.985z"/>
		<path d="M57.182,66.633h0.052c0.286-0.52,0.599-1.039,0.909-1.533l2.574-3.822h4.759l-4.55,5.148l5.199,7.566h-4.861l-3.068-5.227
			l-1.014,1.248v3.979h-3.953V55.531h3.953V66.633z"/>
		<path d="M68.959,68.896c0.131,1.638,1.742,2.418,3.588,2.418c1.353,0,2.445-0.183,3.511-0.521l0.521,2.679
			c-1.301,0.521-2.887,0.78-4.604,0.78c-4.315,0-6.785-2.496-6.785-6.475c0-3.225,2.002-6.786,6.422-6.786
			c4.107,0,5.668,3.198,5.668,6.345c0,0.676-0.078,1.273-0.13,1.56H68.959z M73.613,66.191c0-0.962-0.416-2.574-2.236-2.574
			c-1.664,0-2.34,1.508-2.443,2.574H73.613z"/>
	</g>
	<circle fill="#FFFFFF" cx="30.214" cy="18.992" r="4.021"/>
	<circle fill="#FFFFFF" cx="44.339" cy="18.992" r="4.021"/>
	<circle fill="#FFFFFF" cx="58.027" cy="18.992" r="4.021"/>
	<circle fill="#FFFFFF" cx="71.402" cy="18.992" r="4.021"/>
</g>
</svg>
