<?xml version="1.0" encoding="utf-8"?>
<!-- Generator: Adobe Illustrator 16.0.0, SVG Export Plug-In . SVG Version: 6.00 Build 0)  -->
<!DOCTYPE svg PUBLIC "-//W3C//DTD SVG 1.1//EN" "http://www.w3.org/Graphics/SVG/1.1/DTD/svg11.dtd">
<svg version="1.1" id="Layer_1" xmlns="http://www.w3.org/2000/svg" xmlns:xlink="http://www.w3.org/1999/xlink" x="0px" y="0px"
	 width="50px" height="50px" viewBox="0 0 100 100" enable-background="new 0 0 100 100" xml:space="preserve">
<g>
	
		<path fill="#FFFFFF" stroke="#000000" stroke-width="6" stroke-linecap="round" stroke-linejoin="round" stroke-miterlimit="10" d="
		M8.427,40.786v15.439c0,0,9.433,2.688,12.38,14.1c2.948,11.412-1.018,22.155-1.018,22.155h14.096V82.07
		c0,0,2.841,2.352,10.866,2.352c10.611,0,14.538-2.854,14.538-2.854V92.48h10.72V79.053c0,0,15.061-5.527,15.061-27.525
		c0-21.886-14.739-30.88-25.351-33.565c-10.612-2.685-22.404,0-22.404,0S26.397,5.65,18.144,7.664s2.543,11.754,2.543,11.754
		s6.053,4.336,1.337,11.72C17.307,38.521,8.427,40.786,8.427,40.786z"/>
	
		<ellipse fill="#FFFFFF" stroke="#000000" stroke-width="6" stroke-linecap="round" stroke-linejoin="round" stroke-miterlimit="10" cx="33.778" cy="36.81" rx="2.948" ry="3.306"/>
	<path fill="none" stroke="#000000" stroke-width="6" stroke-linecap="round" stroke-linejoin="round" stroke-miterlimit="10" d="
		M92.54,32.384c0,0,4.833,8.977-7.588,13.146"/>
	<g>
		<path d="M53.545,72.982v-4.948c-3.56-0.156-7.013-1.094-9.032-2.239l1.595-6.093c2.231,1.197,5.366,2.291,8.819,2.291
			c3.028,0,5.101-1.146,5.101-3.229c0-1.979-1.7-3.229-5.632-4.531c-5.686-1.874-9.563-4.479-9.563-9.53
			c0-4.582,3.294-8.176,8.979-9.27v-4.947h5.207v4.583c3.56,0.156,5.951,0.885,7.704,1.718l-1.541,5.886
			c-1.381-0.573-3.825-1.771-7.65-1.771c-3.454,0-4.569,1.459-4.569,2.917c0,1.719,1.859,2.813,6.376,4.479
			c6.322,2.188,8.873,5.052,8.873,9.738c0,4.636-3.348,8.594-9.458,9.635v5.313H53.545z"/>
	</g>
</g>
</svg>
