<?xml version="1.0" encoding="utf-8"?>
<!-- Generator: Adobe Illustrator 16.0.0, SVG Export Plug-In . SVG Version: 6.00 Build 0)  -->
<!DOCTYPE svg PUBLIC "-//W3C//DTD SVG 1.1//EN" "http://www.w3.org/Graphics/SVG/1.1/DTD/svg11.dtd">
<svg version="1.1" id="Layer_1" xmlns="http://www.w3.org/2000/svg" xmlns:xlink="http://www.w3.org/1999/xlink" x="0px" y="0px"
	 width="50px" height="50px" viewBox="0 0 100 100" enable-background="new 0 0 100 100" xml:space="preserve">
<g>
	<polygon fill="#FFFFFF" points="23.889,48.793 41.886,69.264 62.265,70.208 79.516,45.881 	"/>
	<g>
		
			<path fill="#FFFFFF" stroke="#000000" stroke-width="6" stroke-linecap="round" stroke-linejoin="round" stroke-miterlimit="10" d="
			M61.137,69.265c-3.243,1.221-6.743,1.887-10.393,1.887c-3.342,0-6.558-0.558-9.567-1.59"/>
		
			<path fill="#FFFFFF" stroke="#000000" stroke-width="6" stroke-linecap="round" stroke-linejoin="round" stroke-miterlimit="10" d="
			M21.684,49.135c-0.941-3.052-1.449-6.305-1.449-9.681c0-17.506,13.66-31.698,30.51-31.698c16.851,0,30.511,14.191,30.511,31.698
			c0,3.709-0.613,7.269-1.74,10.577"/>
		<g>
			
				<polyline fill="#FFFFFF" stroke="#000000" stroke-width="6" stroke-linecap="round" stroke-linejoin="round" stroke-miterlimit="10" points="
				24.889,92.795 33.813,92.795 33.813,72.082 41.886,72.082 24.889,50.29 			"/>
			
				<polyline fill="#FFFFFF" stroke="#000000" stroke-width="6" stroke-linecap="round" stroke-linejoin="round" stroke-miterlimit="10" points="
				25.889,92.795 15.965,92.795 15.965,72.082 7.893,72.082 24.889,50.29 			"/>
		</g>
		<g>
			
				<polyline fill="#FFFFFF" stroke="#000000" stroke-width="6" stroke-linecap="round" stroke-linejoin="round" stroke-miterlimit="10" points="
				75.936,92.795 84.859,92.795 84.859,72.082 92.932,72.082 75.936,50.29 			"/>
			
				<polyline fill="#FFFFFF" stroke="#000000" stroke-width="6" stroke-linecap="round" stroke-linejoin="round" stroke-miterlimit="10" points="
				76.936,92.795 67.011,92.795 67.011,72.082 58.938,72.082 75.936,50.29 			"/>
		</g>
		<g>
			<path d="M48.065,63.134v-5.54c-4.038-0.176-7.956-1.225-10.246-2.508l1.808-6.824c2.531,1.342,6.088,2.566,10.005,2.566
				c3.436,0,5.786-1.283,5.786-3.616c0-2.216-1.929-3.616-6.389-5.074c-6.449-2.1-10.849-5.016-10.849-10.673
				c0-5.132,3.736-9.156,10.186-10.38v-5.541h5.907v5.132c4.038,0.175,6.75,0.991,8.739,1.924l-1.748,6.59
				c-1.567-0.641-4.34-1.982-8.679-1.982c-3.918,0-5.184,1.633-5.184,3.266c0,1.925,2.109,3.149,7.232,5.016
				C61.808,37.94,64.7,41.147,64.7,46.396c0,5.19-3.797,9.624-10.729,10.79v5.948H48.065z"/>
		</g>
	</g>
</g>
</svg>
